<svg width="24" height="24" viewBox="0 0 24 24" fill="none" xmlns="http://www.w3.org/2000/svg">
<path d="M7.66688 6.28599L12.4992 11.1185L17.3331 6.28599C17.7144 5.90467 18.3327 5.90467 18.714 6.28599C19.0953 6.66731 19.0953 7.28556 18.714 7.66688L13.8808 12.4992L18.714 17.3331C19.0953 17.7144 19.0953 18.3327 18.714 18.714C18.3327 19.0953 17.7144 19.0953 17.3331 18.714L12.4992 13.8808L7.66688 18.714C7.28556 19.0953 6.66731 19.0953 6.28599 18.714C5.90467 18.3327 5.90467 17.7144 6.28599 17.3331L11.1185 12.4992L6.28599 7.66688C5.90467 7.28556 5.90467 6.66731 6.28599 6.28599C6.66731 5.90467 7.28556 5.90467 7.66688 6.28599Z" fill="#55585A"/>
<mask id="mask0" mask-type="alpha" maskUnits="userSpaceOnUse" x="6" y="6" width="13" height="13">
<path d="M7.66688 6.28599L12.4992 11.1185L17.3331 6.28599C17.7144 5.90467 18.3327 5.90467 18.714 6.28599C19.0953 6.66731 19.0953 7.28556 18.714 7.66688L13.8808 12.4992L18.714 17.3331C19.0953 17.7144 19.0953 18.3327 18.714 18.714C18.3327 19.0953 17.7144 19.0953 17.3331 18.714L12.4992 13.8808L7.66688 18.714C7.28556 19.0953 6.66731 19.0953 6.28599 18.714C5.90467 18.3327 5.90467 17.7144 6.28599 17.3331L11.1185 12.4992L6.28599 7.66688C5.90467 7.28556 5.90467 6.66731 6.28599 6.28599C6.66731 5.90467 7.28556 5.90467 7.66688 6.28599Z" fill="white"/>
</mask>
<g mask="url(#mask0)">
</g>
</svg>
