<svg width="24" height="24" viewBox="0 0 24 24" fill="none" xmlns="http://www.w3.org/2000/svg">
<g id="3 Icons/1 General/Delete /1 Outlined">
<rect id="BG" width="24" height="24" fill="#D8D8D8" fill-opacity="0.01"/>
<path id="Shape" fill-rule="evenodd" clip-rule="evenodd" d="M14 3C15.0544 3 15.9182 3.81588 15.9945 4.85074L16 5V6H18.5C18.7761 6 19 6.22386 19 6.5C19 6.74546 18.8231 6.94961 18.5899 6.99194L18.5 7H18V18C18 19.0544 17.1841 19.9182 16.1493 19.9945L16 20H8C6.94564 20 6.08183 19.1842 6.00549 18.1493L6 18V7H5.5C5.22386 7 5 6.77614 5 6.5C5 6.25454 5.17688 6.05039 5.41012 6.00806L5.5 6H8V5C8 3.94564 8.81588 3.08183 9.85074 3.00549L10 3H14ZM17 7H7V18C7 18.5523 7.44772 19 8 19H16C16.5523 19 17 18.5523 17 18V7ZM11 9.5C11 9.2239 10.7761 9 10.5 9C10.2239 9 10 9.2239 10 9.5V15.5C10 15.7761 10.2239 16 10.5 16C10.7761 16 11 15.7761 11 15.5V9.5ZM13.5 9C13.7454 9 13.9496 9.17691 13.9919 9.41014L14 9.5V15.5C14 15.7761 13.7761 16 13.5 16C13.2546 16 13.0504 15.8231 13.0081 15.5899L13 15.5V9.5C13 9.2239 13.2239 9 13.5 9ZM10 4H14C14.5523 4 15 4.44772 15 5V6H9V5C9 4.44772 9.44772 4 10 4Z" fill="black"/>
</g>
</svg>
