<svg width="410" height="218" viewBox="0 0 410 218" fill="none" xmlns="http://www.w3.org/2000/svg">
<g clip-path="url(#clip0)">
<path opacity="0.1" d="M378.565 172.384C378.108 173.368 377.653 174.338 377.198 175.295C376.49 176.782 375.79 178.241 375.1 179.67C374.793 180.303 374.486 180.925 374.186 181.546C370.8 188.458 367.639 194.571 364.953 199.599C362.517 204.154 358.899 207.971 354.479 210.649C350.059 213.327 344.999 214.769 339.829 214.822L280.12 215.471H279.49L274.372 215.527L269.993 215.574L256.567 215.719H256.024L249.189 215.794H248.98L206.851 216.25L169.245 216.644L164.871 216.691L137.704 216.986H137.672L120.053 217.175H119.864L64.1508 217.777L47.4841 217.958C43.9275 217.998 40.3857 217.491 36.9833 216.455C31.0624 214.668 25.7413 211.302 21.5924 206.719C14.4344 198.839 9.21742 189.646 5.71321 179.67C5.20661 178.23 4.73414 176.772 4.29578 175.295C-7.83507 134.325 6.95347 81.4662 33.5697 46.0934C34.6853 44.6143 35.8192 43.1719 36.9715 41.7662L36.9991 41.7347C45.1848 31.6956 54.3626 23.3087 64.139 17.3451C81.4631 6.7592 100.658 3.77738 119.537 12.6639C135.511 20.1853 150.425 23.7218 164.883 24.6816C166.344 24.7761 167.804 24.8469 169.257 24.8901C202.421 25.9326 233.502 13.9935 270.001 6.28714C271.454 5.98031 272.911 5.6774 274.38 5.39024C300.417 0.213341 329.301 -2.51672 363.65 3.22271C367.219 3.80517 370.74 4.64661 374.186 5.74035C375.701 6.22814 377.16 6.75265 378.565 7.31387C394.96 13.9777 403.901 26.2906 407.701 41.719C408.06 43.1509 408.372 44.6077 408.634 46.0894C415.371 83.201 395.641 135.843 378.565 172.384Z" fill="#2992EC"/>
<g opacity="0.1">
<path opacity="0.1" d="M64.1388 17.3447V217.82L47.4722 218.001C43.9155 218.041 40.3738 217.534 36.9713 216.498V41.7344H36.9989C45.1846 31.6835 54.3624 23.2966 64.1388 17.3447Z" fill="#2992EC"/>
<path opacity="0.1" d="M408.653 46.093H33.5695C34.6851 44.6139 35.819 43.1715 36.9713 41.7658V41.7344H407.72C408.08 43.1584 408.391 44.6113 408.653 46.093Z" fill="#2992EC"/>
<path opacity="0.1" d="M378.564 7.31777V175.291H377.198C376.489 176.778 375.79 178.237 375.1 179.666C374.793 180.299 374.485 180.921 374.186 181.542V5.72852C375.701 6.21631 377.16 6.74606 378.564 7.31777Z" fill="#2992EC"/>
<path opacity="0.1" d="M274.379 5.37793V215.542L270.001 215.589V6.27484C271.454 5.968 272.911 5.6651 274.379 5.37793Z" fill="#2992EC"/>
<path opacity="0.1" d="M169.257 24.8774V216.682L164.883 216.729V24.6689C166.343 24.7634 167.804 24.8184 169.257 24.8774Z" fill="#2992EC"/>
<path opacity="0.1" d="M377.198 175.295C376.49 176.782 375.79 178.24 375.1 179.669H5.71304C5.20644 178.23 4.73396 176.771 4.29561 175.295H377.198Z" fill="#2992EC"/>
</g>
<path d="M90.7944 104.572H83.3135V127.255H90.7944V104.572Z" fill="#3F3D56"/>
<path d="M292.121 103.393H284.64V127.389H292.121V103.393Z" fill="#3F3D56"/>
<path d="M339.829 209.928V215.042L280.014 215.593L279.376 215.605L256.642 215.813L256.098 215.821L249.188 215.88H248.984L206.862 216.269L137.719 216.911H137.66L120.08 217.076L119.891 217.08L41.7749 217.796V211.895L60.1424 200.88L96.9956 200.574L97.7831 200.57L98.043 200.566L98.8304 200.554L116.525 200.408L117.316 200.404L117.568 200.4L118.356 200.397L124.029 200.349L124.179 200.345L138.176 200.227H138.29L247.511 199.307L250.185 199.287H250.452L252.492 199.268L267.316 199.146L268.103 199.134L268.832 199.126H269.21L273.82 199.091L274.734 199.079L275.958 199.071L279.797 199.035L285.888 198.984L286.676 198.976L288.046 198.969H288.302L317.717 198.717L339.829 209.928Z" fill="#65617D"/>
<path opacity="0.2" d="M339.829 209.928V215.042L280.014 215.593L279.376 215.605L256.642 215.813L256.098 215.821L249.188 215.88H248.984L206.862 216.269L137.719 216.911H137.66L120.08 217.076L119.891 217.08L41.7749 217.796V211.895L60.1424 200.88L96.9956 200.574L97.7831 200.57L98.043 200.566L98.8304 200.554L116.525 200.408L117.316 200.404L117.568 200.4L118.356 200.397L124.029 200.349L124.179 200.345L138.176 200.227H138.29L247.511 199.307L250.185 199.287H250.452L252.492 199.268L267.316 199.146L268.103 199.134L268.832 199.126H269.21L273.82 199.091L274.734 199.079L275.958 199.071L279.797 199.035L285.888 198.984L286.676 198.976L288.046 198.969H288.302L317.717 198.717L339.829 209.928Z" fill="black"/>
<path d="M116.584 190.263V199.897C116.584 200.353 116.455 200.8 116.211 201.186C115.967 201.571 115.618 201.88 115.206 202.076C114.899 202.225 114.563 202.305 114.221 202.312L100.48 202.603C100.113 202.612 99.7492 202.535 99.4171 202.379C98.9973 202.187 98.6416 201.878 98.3924 201.489C98.1432 201.101 98.011 200.649 98.0115 200.188V190.263H116.584Z" fill="#3F3D56"/>
<path opacity="0.1" d="M116.584 190.263V199.897C116.584 200.353 116.455 200.8 116.211 201.186C115.967 201.571 115.618 201.88 115.206 202.076C114.899 202.225 114.563 202.305 114.221 202.312L100.48 202.603C100.113 202.612 99.7492 202.535 99.4171 202.379C98.9973 202.187 98.6416 201.878 98.3924 201.489C98.1432 201.101 98.011 200.649 98.0115 200.188V190.263H116.584Z" fill="black"/>
<path d="M117.371 190.263V199.897C117.371 200.353 117.242 200.8 116.998 201.186C116.754 201.571 116.406 201.88 115.993 202.076C115.686 202.225 115.35 202.305 115.009 202.312L101.268 202.603C100.901 202.612 100.537 202.535 100.205 202.379C99.7847 202.187 99.4291 201.878 99.1799 201.489C98.9307 201.101 98.7984 200.649 98.7989 200.188V190.263H117.371Z" fill="#3F3D56"/>
<path d="M286.676 190.263H268.103V202.654H286.676V190.263Z" fill="#3F3D56"/>
<path opacity="0.1" d="M286.676 190.263H268.103V202.654H286.676V190.263Z" fill="black"/>
<path d="M285.888 190.263H267.316V202.654H285.888V190.263Z" fill="#3F3D56"/>
<path opacity="0.1" d="M90.7944 104.568V106.822L83.3135 106.63V104.568H90.7944Z" fill="black"/>
<path d="M140.034 41.0691L131.046 105.584C130.989 105.996 130.782 106.372 130.464 106.642C130.147 106.911 129.741 107.054 129.325 107.043L57.3509 105.178L55.9846 105.143C55.7467 105.137 55.5127 105.082 55.2978 104.98C55.0829 104.878 54.892 104.731 54.7374 104.551C54.5829 104.37 54.4682 104.159 54.4009 103.931C54.3335 103.703 54.3151 103.463 54.3467 103.227L64.438 35.6916C64.5031 35.2733 64.7228 34.8945 65.0537 34.6301C65.3847 34.3658 65.8028 34.235 66.2256 34.2636L138.459 39.1494C138.693 39.1629 138.92 39.2245 139.128 39.3304C139.336 39.4362 139.52 39.584 139.668 39.7644C139.816 39.9448 139.925 40.1538 139.988 40.3784C140.051 40.603 140.067 40.8382 140.034 41.0691Z" fill="#65617D"/>
<path d="M69.2691 39.0078L61.6583 98.5382L127.805 100.635L135.94 43.2013L69.2691 39.0078Z" fill="#2992EC"/>
<path d="M229.915 38.0869H153.528C152.369 38.0869 151.429 39.0256 151.429 40.1836V104.175C151.429 105.333 152.369 106.272 153.528 106.272H229.915C231.074 106.272 232.014 105.333 232.014 104.175V40.1836C232.014 39.0256 231.074 38.0869 229.915 38.0869Z" fill="#65617D"/>
<path d="M228.466 42.6777H155.232V99.4544H228.466V42.6777Z" fill="#2992EC"/>
<path opacity="0.1" d="M292.121 103.389V104.88L284.64 105.033V103.389H292.121Z" fill="black"/>
<path d="M325.875 102.13C325.886 102.293 325.864 102.457 325.81 102.611C325.755 102.765 325.671 102.906 325.56 103.027C325.45 103.148 325.316 103.245 325.167 103.312C325.019 103.38 324.858 103.417 324.694 103.421L250.988 104.943C250.682 104.949 250.384 104.84 250.156 104.636C249.927 104.432 249.784 104.15 249.755 103.845L243.42 38.0406C243.405 37.8773 243.422 37.7126 243.472 37.5564C243.522 37.4002 243.603 37.2557 243.711 37.1318C243.818 37.0078 243.95 36.9069 244.098 36.8353C244.245 36.7636 244.406 36.7227 244.57 36.7149L317.717 33.0801L318.505 33.0407C318.818 33.0243 319.125 33.1299 319.362 33.3354C319.598 33.5409 319.745 33.8302 319.773 34.1422L325.875 102.13Z" fill="#65617D"/>
<path d="M247.629 40.5806L314.434 37.2998L320.076 97.0937L253.799 98.6672L247.629 40.5806Z" fill="#2992EC"/>
<path opacity="0.1" d="M325.875 102.13C325.886 102.293 325.864 102.457 325.81 102.611C325.755 102.765 325.671 102.906 325.56 103.027C325.45 103.148 325.316 103.245 325.167 103.312C325.019 103.38 324.858 103.417 324.694 103.421L317.717 33.0801L318.505 33.0407C318.818 33.0243 319.125 33.1299 319.362 33.3354C319.598 33.5409 319.745 33.8302 319.773 34.1422L325.875 102.13Z" fill="black"/>
<path opacity="0.1" d="M66.2374 34.2596L57.3509 105.178L55.9846 105.143C55.7467 105.137 55.5127 105.082 55.2978 104.98C55.0829 104.877 54.892 104.731 54.7374 104.55C54.5829 104.37 54.4682 104.158 54.4009 103.93C54.3335 103.702 54.3151 103.463 54.3467 103.227L64.438 35.6915C64.5023 35.2702 64.7233 34.8888 65.0569 34.6233C65.3905 34.3578 65.8121 34.2279 66.2374 34.2596Z" fill="black"/>
<path opacity="0.1" d="M90.7944 120.536H83.3135V127.255H90.7944V120.536Z" fill="black"/>
<path opacity="0.1" d="M117.371 190.259V192.214L98.7989 192.71V190.259H117.371Z" fill="black"/>
<path d="M150.149 122.876V189.043C150.145 189.447 149.985 189.833 149.702 190.123C149.42 190.412 149.037 190.582 148.633 190.597L73.1749 192.603H73.1552C72.7443 192.598 72.3517 192.432 72.0612 192.142C71.7706 191.852 71.6051 191.46 71.6 191.049V122.876C71.6051 122.466 71.7706 122.073 72.0612 121.783C72.3517 121.493 72.7443 121.327 73.1552 121.322H148.594C149.005 121.327 149.398 121.493 149.688 121.783C149.979 122.073 150.144 122.466 150.149 122.876Z" fill="#65617D"/>
<path opacity="0.1" d="M73.1749 121.322V192.603H73.1552C72.7443 192.598 72.3517 192.432 72.0612 192.142C71.7706 191.852 71.6051 191.46 71.6 191.049V122.876C71.6051 122.466 71.7706 122.073 72.0612 121.783C72.3517 121.493 72.7443 121.327 73.1552 121.322H73.1749Z" fill="black"/>
<path d="M76.6201 125.547H146.507V183.866L76.6201 185.439V125.547Z" fill="#D4DFEC"/>
<path opacity="0.1" d="M292.121 120.536H284.64V127.389H292.121V120.536Z" fill="black"/>
<path opacity="0.1" d="M285.888 190.259V192.78L267.316 192.285V190.259H285.888Z" fill="black"/>
<path d="M310.398 122.876V191.049C310.393 191.463 310.224 191.858 309.93 192.149C309.635 192.44 309.237 192.603 308.823 192.603L233.349 190.597C232.945 190.582 232.562 190.412 232.28 190.123C231.998 189.833 231.838 189.447 231.833 189.043V122.876C231.838 122.466 232.003 122.073 232.294 121.783C232.584 121.493 232.977 121.327 233.388 121.322H308.827C309.241 121.323 309.637 121.487 309.931 121.778C310.225 122.068 310.393 122.463 310.398 122.876Z" fill="#65617D"/>
<path opacity="0.1" d="M310.398 122.876V191.049C310.393 191.463 310.224 191.858 309.93 192.149C309.635 192.44 309.237 192.603 308.823 192.603V121.322C309.237 121.322 309.635 121.485 309.93 121.776C310.224 122.067 310.393 122.462 310.398 122.876Z" fill="black"/>
<path d="M305.378 125.547H235.491V183.866L305.378 185.439V125.547Z" fill="#D4DFEC"/>
<path d="M229.88 122.876V189.043C229.875 189.447 229.715 189.833 229.433 190.123C229.151 190.412 228.768 190.582 228.364 190.597L152.905 192.603C152.491 192.603 152.094 192.44 151.799 192.149C151.504 191.858 151.336 191.463 151.331 191.049V122.876C151.336 122.466 151.501 122.073 151.792 121.783C152.082 121.493 152.475 121.327 152.886 121.322H228.325C228.736 121.327 229.128 121.493 229.419 121.783C229.709 122.073 229.875 122.466 229.88 122.876Z" fill="#65617D"/>
<path d="M156.351 125.547H226.238V183.866L156.351 185.439V125.547Z" fill="#D4DFEC"/>
<path opacity="0.1" d="M339.829 209.928V215.042L280.014 215.592L279.376 215.604L256.642 215.813L256.098 215.821L249.188 215.88H248.984L206.862 216.269L137.719 216.91H137.66L120.08 217.075L119.891 217.079L41.7749 217.795V211.895L121.509 211.371H121.698L137.837 211.261H137.912L249.37 210.526H249.484L249.551 210.522H249.736L251.622 210.51H252.197L281.526 210.313L283.258 210.305L283.644 210.301L339.829 209.928Z" fill="black"/>
<path d="M191.849 127.255C203.011 127.255 212.06 118.214 212.06 107.062C212.06 95.9105 203.011 86.8701 191.849 86.8701C180.688 86.8701 171.639 95.9105 171.639 107.062C171.639 118.214 180.688 127.255 191.849 127.255Z" fill="#FBBEBE"/>
<path d="M212.064 148.368C212.064 148.368 172.887 153.089 176.628 148.368C177.982 146.661 178.356 141.602 178.281 135.839C178.258 134.088 178.195 132.275 178.104 130.469C177.671 121.815 176.628 113.357 176.628 113.357C176.628 113.357 210.882 97.2284 206.945 110.013C205.37 115.178 205.886 122.432 207.083 129.242C207.433 131.228 207.839 133.176 208.264 135.024C209.302 139.534 210.57 143.988 212.064 148.368Z" fill="#FBBEBE"/>
<path opacity="0.1" d="M212.064 148.368C212.064 148.368 172.887 153.088 176.628 148.368C177.982 146.661 178.356 141.602 178.281 135.839C184.254 133.29 191.853 135.19 191.853 135.19C199.854 133.596 204.984 133.907 208.264 135.024C209.302 139.534 210.57 143.988 212.064 148.368Z" fill="black"/>
<path d="M137.703 217.355V217.025L206.851 216.273L248.98 215.88H249.098L249.055 216.462L249.114 215.88H249.188V215.813L249.728 210.522L249.933 208.52L249.996 207.894L250.051 207.371L252.484 199.264L254.917 191.168L256.965 184.351L260.091 173.934C260.091 173.934 258.319 169.803 257.335 168.623C256.35 167.443 255.366 159.379 255.366 159.379C255.366 159.379 246.964 151.381 243.29 150.461C241.751 150.067 238.711 149.544 235.483 148.887C234.274 148.643 233.034 148.384 231.841 148.101C231.167 147.947 230.506 147.786 229.872 147.625C228.638 147.317 227.422 146.941 226.23 146.499C225.605 146.273 225.01 145.97 224.458 145.599C221.564 143.478 214.312 143.238 214.032 143.238C214.031 143.229 214.031 143.22 214.032 143.211V143.175C214.042 143.01 214.042 142.845 214.032 142.68C214.032 142.522 214.032 142.338 213.997 142.129C213.997 142.066 213.997 141.999 213.969 141.932C213.95 141.791 213.926 141.641 213.89 141.484C213.878 141.414 213.863 141.344 213.843 141.275C213.729 140.801 213.564 140.341 213.351 139.902C213.323 139.84 213.288 139.773 213.257 139.71C213.063 139.346 212.84 139 212.587 138.675C212.536 138.608 212.481 138.537 212.422 138.471C212.099 138.091 211.741 137.743 211.351 137.432C211.245 137.349 211.134 137.263 211.02 137.184C210.956 137.133 210.889 137.085 210.819 137.043L210.469 136.814L210.142 136.626C209.855 136.468 209.552 136.315 209.221 136.169C209.118 136.122 209.008 136.079 208.898 136.036C208.788 135.992 208.614 135.925 208.469 135.87H208.445L208.15 135.752C207.925 135.678 207.697 135.611 207.457 135.544L207.091 135.449L206.697 135.359L206.303 135.276C205.91 135.198 205.488 135.127 205.047 135.072L204.598 135.017L204.138 134.97L203.661 134.93L202.984 134.891L202.197 134.863C198.724 134.863 195.26 135.231 191.865 135.961C189.506 135.436 187.09 135.214 184.676 135.3H184.333L183.939 135.324H183.687L183.179 135.371C183.01 135.371 182.837 135.406 182.668 135.43C182.498 135.453 182.321 135.473 182.152 135.501L181.892 135.544C181.636 135.587 181.376 135.634 181.104 135.689C181.018 135.705 180.931 135.725 180.845 135.748C180.502 135.823 180.16 135.914 179.821 136.016C179.652 136.063 179.482 136.118 179.313 136.177C179.226 136.201 179.144 136.232 179.061 136.264L178.809 136.354L178.561 136.453L178.266 136.571C178.116 136.634 177.97 136.7 177.825 136.771C177.742 136.807 177.659 136.846 177.581 136.889C177.502 136.932 177.419 136.968 177.344 137.011C176.454 137.471 175.631 138.051 174.899 138.734L174.698 138.927L174.502 139.128C174.435 139.194 174.372 139.265 174.309 139.336C174.052 139.616 173.813 139.912 173.592 140.221C173.529 140.304 173.47 140.386 173.411 140.473C173.161 140.841 172.935 141.225 172.734 141.622C172.683 141.716 172.635 141.814 172.588 141.909C172.267 142.573 172.003 143.264 171.801 143.974C171.727 144.236 171.66 144.499 171.6 144.761C171.6 144.761 163.265 148.435 156.351 151.094C154.512 151.802 152.779 152.443 151.331 152.927C150.909 153.069 150.516 153.199 150.149 153.321C149.355 153.608 148.529 153.798 147.689 153.887C147.293 153.894 146.898 153.931 146.507 153.997C143.33 154.513 137.885 156.751 137.29 158.997C137.242 159.177 137.228 159.364 137.251 159.548C137.251 159.548 137.251 159.575 137.251 159.591C137.644 162.345 134.888 161.951 134.888 161.951C134.888 161.951 133.904 169.229 132.526 171.196C131.53 172.612 130.849 175.771 130.762 178.155C130.713 178.898 130.771 179.644 130.935 180.37C130.935 180.389 130.935 180.409 130.935 180.425C131.093 180.952 130.715 182.392 130.073 184.237C129.376 186.262 128.36 188.78 127.384 191.156C125.911 194.744 124.525 198.001 124.439 198.717C124.403 199.036 124.301 199.606 124.159 200.342C123.584 203.339 122.309 209.047 121.679 211.356C121.21 213.079 120.529 215.44 120.06 217.06C120.06 217.107 120.033 217.155 120.021 217.198L137.672 217.025V217.355H137.727H137.703Z" fill="#2992EC"/>
<path opacity="0.1" d="M144.145 170.987C144.145 170.987 166.588 182.592 174.659 181.215L144.145 170.987Z" fill="black"/>
<path opacity="0.1" d="M189.818 166.267C189.818 166.267 211.67 173.347 218.954 174.331C226.238 175.314 189.818 166.267 189.818 166.267Z" fill="black"/>
<path opacity="0.1" d="M214.056 143.481C202.638 145.582 181.14 145.13 171.848 144.811C175.254 132.616 191.861 136.762 191.861 136.762C212.418 132.663 213.993 141.168 214.056 143.481Z" fill="black"/>
<path d="M214.056 142.695C202.638 144.796 181.14 144.344 171.848 144.025C175.254 131.83 191.861 135.976 191.861 135.976C212.418 131.877 213.993 140.382 214.056 142.695Z" fill="#2992EC"/>
<path d="M274.667 196.459C274.667 196.459 288.117 194.393 288.38 200.294C288.644 206.195 281.522 210.317 281.522 210.317L274.667 196.459Z" fill="#FBBEBE"/>
<path opacity="0.1" d="M207.083 129.242C206.504 129.5 205.913 129.729 205.311 129.926C201.067 131.39 196.787 132.865 192.318 133.4C187.849 133.935 183.16 133.463 179.262 131.236C178.853 131.005 178.458 130.749 178.081 130.469C177.648 121.815 176.604 113.357 176.604 113.357C176.604 113.357 210.859 97.2284 206.921 110.013C205.354 115.178 205.886 122.432 207.083 129.242Z" fill="black"/>
<path d="M186.306 75.5015C185.744 75.6497 185.155 75.6647 184.586 75.5452C184.017 75.4257 183.484 75.1749 183.03 74.813L183.849 75.9499C183.366 76.0056 182.877 75.9552 182.416 75.8023C181.955 75.6494 181.533 75.3977 181.179 75.0648C181.105 76.0825 181.147 77.1054 181.305 78.1135C179.95 78.1788 178.616 77.7605 177.541 76.9334C177.52 77.2883 177.609 77.641 177.794 77.9442C177.98 78.2473 178.255 78.4863 178.581 78.6288C177.219 78.4664 175.846 78.8043 174.715 79.5795C173.585 80.3548 172.776 81.5144 172.438 82.8419L174.494 83.0308C172.878 83.3754 171.429 84.2592 170.383 85.5366C169.753 86.3234 169.273 87.3304 169.548 88.2903C169.824 89.2501 171.155 89.8638 171.879 89.1793C170.849 90.4082 170.1 91.8475 169.685 93.3962C169.27 94.9449 169.199 96.5655 169.478 98.1445C169.664 98.8173 169.726 99.5187 169.659 100.214C169.529 100.863 169.119 101.425 168.915 102.059C168.521 103.207 168.895 104.454 169.245 105.599L171.092 111.665C171.761 113.856 172.427 116.051 173.301 118.172C173.92 119.512 174.446 120.893 174.876 122.306C175.372 124.21 175.391 126.295 176.451 127.959C177.176 129.006 178.147 129.861 179.278 130.449C183.172 132.675 187.877 133.148 192.334 132.613C196.791 132.078 201.067 130.602 205.307 129.139C206.249 128.855 207.153 128.459 208 127.959C210.934 126.039 211.587 122.113 212.134 118.655C212.745 114.8 213.56 110.953 215.005 107.326C215.863 105.166 216.973 102.975 216.784 100.662C216.544 97.5898 214.111 95.0997 213.509 92.0785C213.307 91.0687 213.316 90.028 213.536 89.022C213.723 88.4225 213.828 87.8006 213.847 87.1731C213.78 85.9064 212.741 84.9308 211.764 84.1165C209.646 82.3489 207.46 80.6784 205.205 79.1048C205.091 78.3181 206.162 77.9798 206.646 77.3582C207.331 76.481 206.622 75.0884 205.583 74.6793C204.543 74.2702 203.378 74.5377 202.295 74.8091C202.366 74.2554 202.255 73.6937 201.981 73.2076C201.706 72.7215 201.282 72.3369 200.771 72.1111C200.26 71.8852 199.69 71.8302 199.145 71.9541C198.6 72.078 198.11 72.3743 197.748 72.7989C197.46 72.1402 197.001 71.5707 196.417 71.1499C195.834 70.7292 195.149 70.4727 194.432 70.4072C191.822 70.2026 191.771 72.1971 190.101 73.2946C188.432 74.3921 187.054 72.9445 185.77 71.8902C185.534 72.4862 185.46 73.1336 185.554 73.7675C185.648 74.4014 185.907 74.9994 186.306 75.5015Z" fill="#3F3D56"/>
<path d="M284.64 208.26C284.64 208.26 284.29 209.094 283.644 210.302C282.667 212.16 281.478 213.898 280.1 215.483L279.994 215.597H279.356L256.622 215.805H256.079L256.012 215.726L251.602 210.498L249.94 208.528L249.874 208.445L249.732 208.28L249.653 208.185L249.551 208.063L246.318 204.232L247.499 199.315L249.511 191.03L249.562 190.829L249.956 189.256L250.236 188.076L251.173 184.228L254.386 170.991L260.095 173.942L266.115 184.563L269.347 190.267H271.119C271.454 190.267 272.222 190.912 272.993 191.656C273.269 191.919 273.545 192.198 273.781 192.442C274.482 193.166 275.037 193.788 275.037 193.788C275.037 193.788 277.907 193.851 278.679 196.109C278.719 196.218 278.752 196.33 278.777 196.443C279.033 197.331 279.367 198.194 279.773 199.024C280.281 200.129 280.919 201.384 281.565 202.639C282.766 204.94 283.986 207.131 284.435 207.926L284.49 208.024L284.64 208.26Z" fill="#2992EC"/>
<path opacity="0.1" d="M250.819 190.499L250.779 191.062V191.101L250.712 192.006L250.189 199.287L249.555 208.06L249.374 210.53L248.98 215.817V215.884L206.851 216.277L137.715 217.025V217.355H137.66V217.025V216.915L137.837 211.266L138.176 200.227L138.467 190.869L138.495 189.937C138.512 189.374 138.644 188.821 138.882 188.31C139.121 187.8 139.461 187.344 139.882 186.97C140.302 186.595 140.795 186.311 141.33 186.133C141.865 185.955 142.43 185.888 142.991 185.936C144.85 186.093 147.263 186.286 150.149 186.491L151.331 186.577C167.997 187.734 198.799 189.228 229.88 187.364C230.533 187.328 231.191 187.289 231.849 187.242C236.668 186.939 241.483 186.55 246.251 186.062C246.854 185.999 247.463 186.068 248.036 186.266C248.609 186.464 249.132 186.784 249.567 187.205C250.002 187.627 250.34 188.138 250.556 188.704C250.773 189.269 250.862 189.875 250.819 190.479V190.499Z" fill="black"/>
<path d="M137.703 217.355V217.024L206.851 216.273L248.98 215.879H249.098V215.813L249.492 210.525L249.661 208.165L250.307 199.271L250.815 192.229V192.056C250.838 191.732 250.823 191.406 250.771 191.085C250.773 191.072 250.773 191.058 250.771 191.045C250.663 190.381 250.393 189.754 249.984 189.22C249.55 188.665 248.982 188.229 248.333 187.953C247.684 187.678 246.976 187.572 246.275 187.646C241.507 188.134 236.691 188.524 231.872 188.827C231.215 188.874 230.557 188.913 229.903 188.949C198.822 190.793 168.021 189.299 151.354 188.162L150.173 188.075C147.287 187.871 144.873 187.682 143.015 187.521C141.993 187.434 140.975 187.73 140.157 188.349C139.34 188.969 138.781 189.869 138.589 190.876C138.55 191.089 138.526 191.305 138.519 191.521L138.251 200.239L137.885 211.281L137.711 216.93V217.04V217.37L137.703 217.355Z" fill="#3F3D56"/>
<path opacity="0.1" d="M250.937 193.256L250.452 199.287L249.732 208.276L249.551 210.526L249.157 215.565L249.133 215.817V215.884L249.074 216.466L249.118 215.884H249.003L206.874 216.277L137.715 217.024V216.914L137.908 211.265L138.302 200.227L138.554 192.891C138.566 192.473 138.683 192.066 138.894 191.705C139.104 191.344 139.401 191.042 139.759 190.825C140.205 190.552 140.726 190.428 141.247 190.471C142.074 190.538 143.09 190.617 144.275 190.703C146.2 190.845 148.574 191.01 151.338 191.183C156.457 191.506 162.879 191.852 170.237 192.135C190.712 192.922 218.351 193.186 244.605 190.888C245.787 190.786 247.007 190.672 248.2 190.558C248.672 190.511 249.148 190.601 249.57 190.817C249.69 190.877 249.803 190.948 249.909 191.03C250.252 191.278 250.523 191.612 250.696 191.998C250.737 192.074 250.77 192.155 250.795 192.238C250.913 192.563 250.961 192.911 250.937 193.256Z" fill="black"/>
<path opacity="0.1" d="M117.371 198.642V199.896C117.371 200.353 117.242 200.8 116.998 201.186C116.754 201.571 116.406 201.88 115.993 202.076L100.205 202.379C99.7847 202.186 99.4291 201.878 99.1799 201.489C98.9307 201.101 98.7984 200.649 98.7989 200.188V199.007L117.371 198.642Z" fill="black"/>
<path d="M117.568 202.815L96.9957 203.208V199.798L117.568 199.404V202.815Z" fill="#3F3D56"/>
<path opacity="0.1" d="M117.568 202.815L96.9957 203.208V199.798L117.568 199.404V202.815Z" fill="black"/>
<path d="M118.356 202.815L97.7831 203.208V199.798L118.356 199.404V202.815Z" fill="#3F3D56"/>
<g opacity="0.1">
<path opacity="0.1" d="M186.467 74.2112C186.082 73.7118 185.827 73.1254 185.723 72.5039C185.628 73.1115 185.685 73.7331 185.888 74.3135C186.084 74.2954 186.277 74.2612 186.467 74.2112Z" fill="black"/>
<path opacity="0.1" d="M181.467 76.8237C181.392 76.3414 181.344 75.8556 181.321 75.3682C181.321 75.852 181.321 76.3398 181.321 76.8276L181.467 76.8237Z" fill="black"/>
<path opacity="0.1" d="M213.556 89.9499C213.578 89.5994 213.625 89.251 213.698 88.9074C213.884 88.3091 213.99 87.6887 214.012 87.0625C214.004 86.9219 213.983 86.7824 213.949 86.6455C213.883 87.0074 213.776 87.3693 213.698 87.7273C213.54 88.4571 213.492 89.2061 213.556 89.9499Z" fill="black"/>
<path opacity="0.1" d="M205.366 77.7952L205.795 78.106C206.157 77.8445 206.496 77.5523 206.807 77.2327C206.955 77.028 207.047 76.788 207.073 76.5367C207.1 76.2854 207.059 76.0317 206.957 75.8008C206.918 75.8906 206.867 75.9751 206.807 76.0525C206.323 76.6741 205.252 77.0163 205.366 77.7952Z" fill="black"/>
<path opacity="0.1" d="M173.013 81.5791C172.87 81.866 172.755 82.1665 172.671 82.476C173.287 82.1325 173.95 81.882 174.639 81.7325L173.013 81.5791Z" fill="black"/>
<path opacity="0.1" d="M178.443 77.2993C178.184 77.1569 177.937 76.9952 177.703 76.8154C177.693 76.9711 177.705 77.1273 177.738 77.2796C177.973 77.2684 178.209 77.275 178.443 77.2993Z" fill="black"/>
<path opacity="0.1" d="M216.938 100.477C216.777 102.384 215.887 104.222 215.166 106.031C213.721 109.658 212.906 113.505 212.296 117.364C211.749 120.822 211.115 124.748 208.162 126.664C207.318 127.168 206.415 127.564 205.472 127.844C201.228 129.311 196.948 130.783 192.479 131.318C188.011 131.853 183.321 131.385 179.423 129.158C178.293 128.569 177.323 127.714 176.596 126.668C175.545 125.004 175.525 122.919 175.021 121.015C174.592 119.601 174.065 118.219 173.446 116.877C172.576 114.76 171.907 112.549 171.242 110.374C170.625 108.352 170.009 106.329 169.395 104.304C169.193 103.695 169.042 103.07 168.946 102.436C168.793 103.443 169.092 104.497 169.395 105.484C170.009 107.512 170.625 109.535 171.242 111.554C171.907 113.745 172.576 115.94 173.446 118.057C174.065 119.399 174.592 120.781 175.021 122.195C175.517 124.099 175.537 126.184 176.596 127.848C177.323 128.894 178.293 129.749 179.423 130.338C183.321 132.565 188.022 133.033 192.479 132.498C196.936 131.963 201.212 130.492 205.472 129.024C206.415 128.744 207.318 128.348 208.162 127.844C211.095 125.928 211.749 122.002 212.296 118.545C212.906 114.685 213.721 110.838 215.166 107.211C216.024 105.056 217.135 102.864 216.946 100.547C216.946 100.524 216.938 100.5 216.938 100.477Z" fill="black"/>
<path opacity="0.1" d="M169.812 98.9546C169.812 98.9546 169.812 98.9271 169.812 98.9113C169.883 98.2177 169.822 97.5168 169.631 96.8461C169.553 96.4144 169.501 95.9782 169.478 95.54C169.432 96.3719 169.484 97.2062 169.631 98.0262C169.694 98.333 169.765 98.6438 169.812 98.9546Z" fill="black"/>
<path opacity="0.1" d="M171.013 89.3327C171.316 88.8244 171.66 88.3416 172.041 87.889C171.32 88.5774 169.989 87.9637 169.71 87.0078C169.607 87.3945 169.607 87.8013 169.71 88.188C169.807 88.4766 169.978 88.7345 170.207 88.9356C170.436 89.1366 170.714 89.2736 171.013 89.3327Z" fill="black"/>
</g>
<path opacity="0.1" d="M269.351 190.263C269.351 190.263 270.6 194.787 269.351 198.72C268.103 202.654 269.351 190.263 269.351 190.263Z" fill="black"/>
<path opacity="0.1" d="M274.667 194.877C274.667 194.877 275.19 200.62 274.009 201.639C272.828 202.658 274.667 194.877 274.667 194.877Z" fill="black"/>
<path d="M78.3485 134.875L118.356 134.481" stroke="#2992EC" stroke-width="2" stroke-miterlimit="10"/>
<path d="M78.3485 139.78L118.356 139.391" stroke="#2992EC" stroke-width="2" stroke-miterlimit="10"/>
<path d="M78.3485 144.689L118.356 144.296" stroke="#2992EC" stroke-width="2" stroke-miterlimit="10"/>
</g>
<defs>
<clipPath id="clip0">
<rect width="410" height="218" fill="white"/>
</clipPath>
</defs>
</svg>
