<svg width="24" height="24" viewBox="0 0 24 24" fill="none" xmlns="http://www.w3.org/2000/svg">
<rect width="24" height="24" fill="#D8D8D8" fill-opacity="0.01"/>
<path fill-rule="evenodd" clip-rule="evenodd" d="M3.262 7.64645C3.06674 7.45118 2.75016 7.45118 2.55489 7.64645C2.35963 7.84171 2.35963 8.15829 2.55489 8.35355L3.96658 9.76524L2.65837 12.0311C2.5203 12.2703 2.60224 12.5761 2.84138 12.7141C3.08053 12.8522 3.38633 12.7703 3.5244 12.5311L4.70085 10.4934C5.06834 10.8407 5.45477 11.1564 5.85669 11.4405C5.83907 11.4652 5.82344 11.4918 5.81017 11.5203L4.54231 14.2392C4.42561 14.4895 4.53388 14.787 4.78415 14.9037C5.03443 15.0204 5.33192 14.9121 5.44862 14.6618L6.70009 11.9781C7.24122 12.2875 7.80402 12.5449 8.38119 12.7503L7.67635 15.3808C7.60488 15.6475 7.76317 15.9217 8.0299 15.9931C8.29664 16.0646 8.57081 15.9063 8.64228 15.6396L9.33878 13.0402C10.0263 13.213 10.728 13.3153 11.4322 13.3471C11.4167 13.3953 11.4084 13.4467 11.4084 13.5V16C11.4084 16.2762 11.6322 16.5 11.9084 16.5C12.1845 16.5 12.4083 16.2762 12.4083 16V13.5C12.4083 13.4467 12.4 13.3953 12.3845 13.3471C12.9791 13.3203 13.5719 13.2432 14.1559 13.1158L14.8142 15.5724C14.8857 15.8392 15.1598 15.9975 15.4266 15.926C15.6933 15.8545 15.8516 15.5804 15.7801 15.3136L15.1217 12.8564C15.7157 12.666 16.2961 12.4214 16.8551 12.1227L18.0079 14.5947C18.1246 14.845 18.422 14.9533 18.6723 14.8366C18.9226 14.7199 19.0309 14.4224 18.9142 14.1721L17.7179 11.6067C18.2883 11.227 18.8298 10.7856 19.333 10.2824L19.3502 10.2653L20.6583 12.5311C20.7964 12.7703 21.1022 12.8522 21.3413 12.7141C21.5805 12.5761 21.6624 12.2703 21.5244 12.0311L20.0822 9.53323L21.2619 8.35355C21.4571 8.15829 21.4571 7.84171 21.2619 7.64645C21.0666 7.45118 20.75 7.45118 20.5548 7.64645L18.6259 9.57534C14.9159 13.2853 8.90087 13.2853 5.19089 9.57534L4.95016 9.3346L4.94027 9.32471L3.262 7.64645Z" fill="black"/>
</svg>
