<svg width="24" height="24" viewBox="0 0 24 24" fill="none" xmlns="http://www.w3.org/2000/svg">
<rect width="24" height="24" fill="#D8D8D8" fill-opacity="0.01"/>
<path fill-rule="evenodd" clip-rule="evenodd" d="M18.6568 9.92893L19.8786 11.1507C20.2691 11.5412 20.2691 12.1744 19.8786 12.5649L18.6568 13.7867C14.7516 17.6919 8.41992 17.6919 4.51468 13.7867L3.29289 12.5649C2.90237 12.1744 2.90237 11.5412 3.29289 11.1507L4.51468 9.92893C8.41992 6.02369 14.7516 6.02369 18.6568 9.92893ZM17.9497 10.636C14.5039 7.19024 8.95913 7.12267 5.43102 10.4333L5.22178 10.636L4 11.8578L5.22178 13.0796C8.66759 16.5254 14.2124 16.593 17.7405 13.2823L17.9497 13.0796L19.1715 11.8578L17.9497 10.636ZM11.5857 9.35782C12.9664 9.35782 14.0857 10.4771 14.0857 11.8578C14.0857 13.2385 12.9664 14.3578 11.5857 14.3578C10.205 14.3578 9.08569 13.2385 9.08569 11.8578C9.08569 10.4771 10.205 9.35782 11.5857 9.35782ZM11.5857 10.3578C10.7573 10.3578 10.0857 11.0294 10.0857 11.8578C10.0857 12.6862 10.7573 13.3578 11.5857 13.3578C12.4141 13.3578 13.0857 12.6862 13.0857 11.8578C13.0857 11.0294 12.4141 10.3578 11.5857 10.3578Z" fill="black"/>
</svg>
