<svg xmlns="http://www.w3.org/2000/svg" width="648.709" height="547.247" viewBox="0 0 648.709 547.247"><defs><style>.a{fill:#5793ce;}.b{fill:#c4d9e8;}.c{fill:#d4ecff;}.d{fill:#173d7a;}.e{fill:#fff;}.f{fill:#396caa;}.g{fill:#d3d0cf;}.h{fill:#f2f2f2;}.i{fill:#ffc2b0;}.j{fill:#ea9c92;}.k{fill:#ff2c9c;}.l{fill:#274f89;}.m{fill:#d3008d;}</style></defs><g transform="translate(-264.54 -82.067)"><g transform="translate(797.812 568.303)"><rect class="a" width="4.219" height="12.255" transform="matrix(0.248, 0.969, -0.969, 0.248, 30.039, 0)"/><rect class="a" width="4.219" height="12.255" transform="translate(23.984 5.908) rotate(75.627)"/><rect class="a" width="4.219" height="12.255" transform="translate(17.928 11.815) rotate(75.627)"/><rect class="a" width="4.219" height="12.255" transform="translate(11.871 17.722) rotate(75.624)"/></g><g transform="translate(311.242 86.825)"><path class="b" d="M522,137.13,410.584,202.5c-28.249-8.669-64.24-5.989-87.99,7.946-28.9,16.953-28.706,44.114.424,60.663a88.9,88.9,0,0,0,21.919,8.6,116.923,116.923,0,0,0,17.42,3c23.172,2.255,47.9-1.877,65.732-12.337,21.594-12.671,26.938-31.037,16.1-46.418l15.375-9.02-.435-9.761,16.179-.113-.409-9.14,16.182-.113-.409-9.142,16.182-.113-.409-9.14,16.179-.113-.407-9.142,17.274-.122,5.271-3.091,5.817-24ZM365.212,262.212c-7.524,4.413-19.77,4.5-27.353.192s-7.634-11.38-.111-15.793,19.77-4.5,27.353-.192S372.733,257.8,365.212,262.212Z" transform="translate(-267.037 -20.149)"/><path class="b" d="M514.6,433.141l-150.266-86.4c-10.117-5.841-8.848-16.044,2.834-22.788l145.842-84.2c11.682-6.746,29.354-7.477,39.471-1.636l150.267,86.4c10.117,5.841,8.848,16.042-2.832,22.788l-145.845,84.2C542.384,438.251,524.712,438.982,514.6,433.141Z" transform="translate(-198.677 97.362)"/><g transform="translate(117.089 175.189)"><g transform="translate(208.778)"><path class="a" d="M599.274,322.887l-25.98-15,95.785-55.3c4.523-2.613,4.523-6.863,0-9.474l-97.853-56.5c-4.523-2.613-11.884-2.613-16.409,0l-95.785,55.3-25.978-15,95.785-55.3c18.848-10.882,49.518-10.882,68.366,0l97.853,56.5c18.848,10.882,18.848,28.589,0,39.471Z" transform="translate(-433.054 -163.457)"/></g><g transform="translate(0 27.547)"><path class="c" d="M752.762,314.4c0-13.889-8.443-30.022-18.861-36.038L560.357,178.17c-4.665-2.693-8.928-2.883-12.22-1.044l-.009-.007L340.918,297.53,541.3,448.522,745.439,330.037a9.458,9.458,0,0,0,1.8-1.046l0,0h0C750.652,326.407,752.762,321.342,752.762,314.4Z" transform="translate(-335.844 -175.917)"/><path class="d" d="M445.967,383.666,650.109,265.181a9.462,9.462,0,0,0,1.8-1.046l0,0h0c3.407-2.582,5.516-7.648,5.516-14.585a46.27,46.27,0,0,0-5.083-20.071l-232.7,134.352Z" transform="translate(-240.514 -111.061)"/><path class="a" d="M531.027,382.637l-173.545-100.2c-10.416-6.014-18.859-22.149-18.859-36.036h0c0-13.889,8.443-20.272,18.859-14.258l173.545,100.2c10.416,6.014,18.859,22.147,18.859,36.036h0C549.886,382.268,541.443,388.651,531.027,382.637Z" transform="translate(-338.623 -110.567)"/></g><path class="e" d="M427.378,296.021l-20.864-12.036c-2.076-1.2-3.761-4.413-3.761-7.183h0c0-2.768,1.685-4.039,3.761-2.841L427.378,286c2.076,1.2,3.758,4.415,3.758,7.183h0C431.137,295.948,429.454,297.219,427.378,296.021Z" transform="translate(-260.967 -30.195)"/></g><path class="f" d="M343.029,170.311l35.655,20.254,36.383-21.347-.1-9.286-.31.182-.029-.656,16.181-.113-.1-9.143,15.867-.111-.1-9.143,15.867-.111-.1-9.143,15.867-.111-.1-9.143,16.963-.119,5.27-3.092,5.817-24-.1-9.286-2.807,8.9L477.5,91.413Z" transform="translate(-216.199 -82.128)"/><g transform="translate(40.248)"><g transform="translate(86.486)"><path class="c" d="M378.641,183.37l36.382-21.346-.436-9.759,16.18-.113-.409-9.14,16.18-.113-.408-9.141,16.18-.113-.408-9.14,16.18-.113-.408-9.14,17.276-.121,5.27-3.092,5.817-24-28.581-3.818-134.471,78.9Z" transform="translate(-342.985 -84.219)"/></g><g transform="translate(86.485 63.48)"><path class="f" d="M402.87,134.388c-3.663-5.2-9.164-10.064-16.527-14.247a85.3,85.3,0,0,0-17.079-7.21l-26.279,15.417L378.64,148.6Z" transform="translate(-342.985 -112.931)"/></g><g transform="translate(131.125 3.177)"><path class="a" d="M480.613,90.324l.976-4.028-4.8-.641L363.176,152.318l5.984,3.4Z" transform="translate(-363.176 -85.656)"/></g><g transform="translate(0.009 104.275)"><path class="g" d="M304.264,144.583l-.393-13.2L308.1,140.3Z" transform="translate(-303.872 -131.383)"/></g><path class="f" d="M326.021,191.092c29.131,16.549,76.172,16.221,105.069-.734,14.488-8.5,21.66-19.567,21.543-30.572l0,.007-.4-13.986-2.374,2.646c-3.352-6.894-9.739-13.385-19.193-18.755-29.133-16.549-76.172-16.219-105.069.734S296.888,174.546,326.021,191.092ZM368.1,166.4c7.583,4.309,7.634,11.38.111,15.792s-19.77,4.5-27.353.192-7.634-11.38-.111-15.793S360.518,162.094,368.1,166.4Z" transform="translate(-303.652 -43.921)"/><g transform="translate(0 60.384)"><path class="h" d="M325.841,185.126c29.133,16.549,76.175,16.219,105.071-.734s28.7-44.114-.427-60.663-76.172-16.219-105.069.736S296.71,168.577,325.841,185.126Zm42.082-24.689c7.583,4.307,7.634,11.377.111,15.793s-19.77,4.5-27.353.19-7.634-11.377-.111-15.793S360.34,156.128,367.923,160.437Z" transform="translate(-303.867 -111.531)"/></g><path class="a" d="M359.4,170.122c-6.409,1-13.5.126-18.545-2.739-5.439-3.091-6.98-7.6-4.656-11.53L323,145.388s-6.9-7.782-13.728-15.5c-10.626,15.532-5.032,33.827,16.743,46.2,9.606,5.457,20.369,8.556,32.578,10.354Z" transform="translate(-303.647 -28.916)"/><g transform="translate(0 60.384)"><path class="c" d="M325.841,185.126a88.72,88.72,0,0,0,21.919,8.6,116.638,116.638,0,0,0,17.42,3.007c23.173,2.255,47.9-1.877,65.733-12.337,28.9-16.955,28.7-44.114-.427-60.663s-76.172-16.219-105.069.736S296.71,168.577,325.841,185.126Zm42.082-24.689c7.583,4.307,7.634,11.377.111,15.793s-19.77,4.5-27.353.19-7.634-11.377-.111-15.793S360.34,156.128,367.923,160.437Z" transform="translate(-303.867 -111.531)"/></g><g transform="translate(8.208 65.115)"><path class="f" d="M307.582,152.477c1.417-8.454,7.685-16.714,18.846-23.263,25.711-15.085,67.563-15.377,93.482-.654,12.881,7.318,19.387,16.966,19.536,26.672,1.846-11.021-4.559-22.377-19.226-30.707-25.918-14.725-67.773-14.431-93.482.652C313.8,132.765,307.434,142.652,307.582,152.477Z" transform="translate(-307.58 -113.67)"/></g></g><g transform="translate(0 101.632)"><path class="f" d="M316.6,252.544a29.147,29.147,0,0,1-14.576-3.761c-10.44-5.923-16.25-17.829-16.354-33.524-.206-28.625,19.719-63.7,44.413-78.191,13.529-7.939,26.728-9.049,37.167-3.117a29.192,29.192,0,0,1,10.807,10.807c3.621,6.171,5.488,13.814,5.547,22.719.2,28.625-19.724,63.7-44.417,78.191C331.389,250.238,323.7,252.544,316.6,252.544ZM352.644,140.71c-5.244,0-11.121,1.82-17.252,5.419-21.808,12.795-39.407,43.774-39.226,69.06.08,11.782,4,20.469,11.037,24.461s16.5,2.918,26.664-3.042c21.811-12.795,39.407-43.774,39.23-69.06-.046-6.938-1.466-12.98-4.1-17.473h0a18.249,18.249,0,0,0-16.35-9.365Z" transform="translate(-285.663 -130.188)"/></g><path class="c" d="M324.153,151.1l20.741,5.083,2.978-15.39c-7.522,4.413-19.77,4.5-27.353.19Z" transform="translate(-243.457 -15.712)"/><path class="c" d="M313.806,146.259a88.72,88.72,0,0,0,21.919,8.6,116.635,116.635,0,0,0,17.42,3.007c23.173,2.255,47.9-1.877,65.732-12.337l-84.463-1.9Z" transform="translate(-251.585 -12.28)"/><path class="f" d="M337.969,152.23a122.642,122.642,0,0,1-18.344-4.727v12.96a100.61,100.61,0,0,0,18.121,4.645C357.084,167.662,337.969,152.23,337.969,152.23Z" transform="translate(-244.539 -7.588)"/><path class="a" d="M330.755,151.121a86.036,86.036,0,0,1-11.948-4.409c-11.3-5.288,2.994,14.3,2.994,14.3s3.849,1.534,8.954,3.1Z" transform="translate(-250.794 -9.643)"/></g><path class="a" d="M447.763,251.37,410.808,275.2l-17.989-2.921,43.941-21.242Z" transform="translate(155.334 204.613)"/><g transform="translate(476.825 133.437)"><g transform="translate(8.016)"><path class="d" d="M415.732,306.584s-10.643-5.368-17.181,2.624-15.883,26.865-16.173,39.615,10.091,11.888,16.261,8.87,24.194-29.162,25.286-34.284S422.639,311.358,420.9,310,415.732,306.584,415.732,306.584Z" transform="translate(-342.156 136.297)"/><path class="a" d="M409.551,305.853l.493,11.028a6.255,6.255,0,0,1-3.117,5.737,12.265,12.265,0,0,1-8.211,1.276c-8.019-1.289-8.733-3.579-9.308-14.605S409.551,305.853,409.551,305.853Z" transform="translate(-333.652 134.464)"/><g transform="translate(0 195.659)"><path class="d" d="M398.108,296.993s-10.643-5.368-17.181,2.624-15.883,26.863-16.173,39.613,10.091,11.89,16.261,8.872,24.194-29.162,25.286-34.287-1.287-12.049-3.022-13.4S398.108,296.993,398.108,296.993Z" transform="translate(-363.497 -70.976)"/><path class="a" d="M391.927,296.262l.493,11.028a6.256,6.256,0,0,1-3.117,5.737,12.279,12.279,0,0,1-8.211,1.276c-8.019-1.289-8.735-3.579-9.308-14.605S391.927,296.262,391.927,296.262Z" transform="translate(-354.993 -72.809)"/><path class="c" d="M496.1,214.779c-3.151-51.262-55.516,7.541-55.516,7.541l-35.839,35.129L372.47,292.9a31.81,31.81,0,0,0-8.017,25.556l13.055,99.411a9.77,9.77,0,0,0,9.8,8.49,32.98,32.98,0,0,0,4.835-.422c11.647-1.815,10.787-12.887,10.787-12.887l-2.386-92.98,67.778-40.858S499.25,266.041,496.1,214.779Z" transform="translate(-364.183 -193.799)"/></g><path class="a" d="M406.528,244.9l-9.644-3.542c-.225,0-16.4,15.64-16.255,21.114l7.256,2.328L406.1,247.119Z" transform="translate(-344.268 59.455)"/><path class="a" d="M426.185,276.422s40.278-23,45.1-32.64c1.888-3.776,4.822-7.723-6.931-13.429l-53.716,38.291,2.328,13.184Z" transform="translate(-307.929 46.124)"/><path class="c" d="M513.724,223.722c-3.358-51.249-55.516,7.544-55.516,7.544l-35.839,35.129-32.275,35.452a31.816,31.816,0,0,0-8.017,25.556l13.058,99.414a9.768,9.768,0,0,0,9.8,8.49,33.288,33.288,0,0,0,4.835-.422c11.647-1.815,10.787-12.89,10.787-12.89l-2.386-92.978,67.778-40.858S516.795,270.578,513.724,223.722Z" transform="translate(-342.842 12.698)"/><path class="a" d="M469.409,140.819c39.7,16.458,38.905,39.927,38.905,39.927s-7.778,86.035-5.123,143.492c1.11,24.022-127.618,25.854-108.421-38.229,22.635-75.558,14.15-136.727,24.747-145.951S459.14,136.561,469.409,140.819Z" transform="translate(-329.507 -69.203)"/><path class="i" d="M455.154,158.373c-2.076,8.061-12.638,12.31-23.588,9.489s-18.145-11.643-16.069-19.7,12.638-12.308,23.588-9.487S457.23,150.314,455.154,158.373Z" transform="translate(-302.478 -65.95)"/><path class="e" d="M439.311,171.658a28.806,28.806,0,0,1-7.174-.922,26.424,26.424,0,0,1-13.92-8.525c-3.427-4.2-4.676-8.99-3.515-13.489,2.33-9.063,13.953-13.935,25.9-10.853a26.429,26.429,0,0,1,13.918,8.527c3.427,4.2,4.676,8.99,3.515,13.487C456.176,167.1,448.424,171.658,439.311,171.658Zm-5.976-30.931c-7.373,0-13.54,3.431-14.959,8.941-.849,3.3.137,6.9,2.784,10.144a22.609,22.609,0,0,0,11.921,7.247c9.92,2.547,19.465-1.088,21.278-8.121.849-3.3-.137-6.9-2.784-10.144a22.589,22.589,0,0,0-11.921-7.25A25.457,25.457,0,0,0,433.335,140.727Z" transform="translate(-303.521 -66.986)"/><path class="i" d="M420.45,141.218s.345,1.592-.343,14.172c-.217,3.955,13.632,7.65,17.212,4.07s2.147-7.3,3.007-20.763S420.45,141.218,420.45,141.218Z" transform="translate(-296.466 -71.392)"/><path class="j" d="M440.326,135.744s-3.411,12.481-20.221,17.267l.254-11.344Z" transform="translate(-296.466 -68.439)"/><path class="i" d="M467.014,133.954a30.559,30.559,0,1,1-37.236-21.937A30.56,30.56,0,0,1,467.014,133.954Z" transform="translate(-312.503 -98.357)"/><path class="j" d="M444.561,129.412s-16.825,7.208-28.474,7.289S407,127.029,407,127.029l34.583-5Z" transform="translate(-312.62 -85.045)"/><path class="k" d="M419.889,151.568s14.656-6.221,27.515-3.628a13.469,13.469,0,0,1,7.769,4.619,4.587,4.587,0,0,0,2.352,1.7c2.279.517,6.011-8.943,10.444-9.158s7.389,2.921,3.754,8.74-2.405,12.328-.732,13.261,19.405-12.649,3.763-43.637-55.379-14.3-61.561-8.017c0,0-6.511,5.671-11.8.623C401.391,116.072,395.454,160.531,419.889,151.568Z" transform="translate(-319.896 -105.302)"/><path class="i" d="M462.835,191.431v23.248a9.477,9.477,0,0,1-3.091,7l-47.758,43.539,5.426,8.3,63.068-45.742a12.817,12.817,0,0,0,5.224-9.036l4.263-40.544Z" transform="translate(-306.297 -17.032)"/><path class="a" d="M455.8,150.495s14.488,21.788,19.885,79.144c0,0-24.749,8-38.795,3.46S455.8,150.495,455.8,150.495Z" transform="translate(-280.356 -50.577)"/><path class="f" d="M437.072,162.956s-5.673,30.356-5.994,44.623a9.106,9.106,0,0,0,5.994,8.795h0Z" transform="translate(-283.181 -35.487)"/></g><g transform="translate(7.634 230.829)"><path class="d" d="M505.89,254.005l-10.555-1.393L427.2,213.274c-2.184-1.262-6-1.1-8.523.352l-48.282,27.866-6.381-.842V247h0a2.489,2.489,0,0,0,1.466,2.237l77.22,44.583c2.184,1.26,6,1.1,8.521-.354l52.582-30.347c1.419-.82,2.127-1.875,2.085-2.868h0Z" transform="translate(-364.008 -206.418)"/><path class="f" d="M454.695,221.518l-4.842-2.795H396.632l-26.239,15.138-6.381-.842v6.354h0a2.489,2.489,0,0,0,1.466,2.237l77.22,44.583a7.976,7.976,0,0,0,4.4.822Z" transform="translate(-364.008 -198.787)"/><path class="a" d="M366.844,225.563l-2.832-.374v6.354h0a2.489,2.489,0,0,0,1.466,2.237l1.362.785Z" transform="translate(-364.008 -190.958)"/><path class="l" d="M399.955,255.57a9.9,9.9,0,0,0,7.243-.449V244.31h-7.243Z" transform="translate(-320.484 -167.804)"/><path class="e" d="M442.705,290.762l-77.22-44.583c-2.184-1.262-1.91-3.464.612-4.921l52.58-30.347c2.523-1.457,6.339-1.614,8.523-.354l77.22,44.583c2.184,1.262,1.91,3.465-.612,4.922l-52.582,30.347C448.705,291.866,444.889,292.023,442.705,290.762Z" transform="translate(-364.01 -209.706)"/><path class="c" d="M434.851,275.081l-64.207-37.07c-1.817-1.048-1.59-2.879.509-4.09l28.176-15.846a7.875,7.875,0,0,1,7.086-.292l64.209,37.068c1.815,1.05,1.587,2.881-.511,4.092l-28.176,15.843A7.869,7.869,0,0,1,434.851,275.081Z" transform="translate(-357.463 -200.784)"/></g><path class="i" d="M390.764,211.056l-.8,5.328a39.39,39.39,0,0,0,.349,13.661l.951,4.7a6.6,6.6,0,0,0,5.291,5.187h0a3.642,3.642,0,0,0,4.271-3.179l1.273-11.391s2.914,3.82,4.322,3.82-1.574-11.408-4.758-17.864S390.764,211.056,390.764,211.056Z" transform="translate(-325.476 19.513)"/><path class="i" d="M419.011,180.094l-8.286,16.4a32.132,32.132,0,0,0-3.389,12.447l-3.6,56.091-10.9-.259-4.948-62.991a23.144,23.144,0,0,1,.281-5.824l5.653-31.943Z" transform="translate(-327.548 -34.204)"/><g transform="translate(0 197.428)"><path class="d" d="M443.532,313.336l-6.476-8.452-68.089-39.421c-2.182-1.265-3.949-4.65-3.944-7.564l.058-55.744-3.913-5.112,3.677-2.131,0,.007a2.482,2.482,0,0,1,2.671.153l77.165,44.678c2.182,1.262,3.949,4.65,3.944,7.561l-.064,60.709c0,1.638-.564,2.779-1.444,3.237h0Z" transform="translate(-359.818 -194.599)"/><path class="f" d="M396.444,281.371l-4.837-2.8-26.553-46.122.027-30.292-3.913-5.112,3.677-2.131,0,.007a2.482,2.482,0,0,1,2.671.153l77.165,44.678a7.992,7.992,0,0,1,2.907,3.4Z" transform="translate(-359.818 -194.599)"/><path class="a" d="M362.9,199.313l-1.736-2.268,3.677-2.131,0,.007a2.482,2.482,0,0,1,2.671.153l1.36.787Z" transform="translate(-359.818 -194.599)"/><path class="l" d="M403.6,215.244a9.89,9.89,0,0,1,3.224,6.5l-7.541,4.353-3.613-6.275Z" transform="translate(-318.036 -169.6)"/><path class="a" d="M441.746,240.713l-77.163-44.676c-2.184-1.265-3.957.073-3.96,2.985l-.066,60.709c0,2.914,1.764,6.3,3.947,7.564l77.165,44.676c2.182,1.265,3.955-.073,3.96-2.985l.064-60.709C445.7,245.363,443.93,241.978,441.746,240.713Z" transform="translate(-360.557 -193.435)"/></g><path class="i" d="M428.375,225.857l-1.236,2.56a17.149,17.149,0,0,1-6.449,7.15l-7.665,4.725a7.632,7.632,0,0,1-7.824.181c-.086-.051-.175-.1-.261-.157a4.614,4.614,0,0,1-.652-7.086L412.3,225s-4.5,3.447-5.762,2.058c-.924-1.017,4.364-5.983,8.426-6.144s7.988-3.354,7.988-3.354Z" transform="translate(-309.245 30.629)"/><path class="a" d="M427.823,137.295s-29.363,31.95-41.207,61.26c0,0,10.04,18.09,34.618,25.187S427.823,137.295,427.823,137.295Z" transform="translate(-329.002 -66.561)"/><path class="f" d="M403.308,200.718l4.76-45.974-11.214,43.073A63.774,63.774,0,0,0,403.308,200.718Z" transform="translate(-316.605 -45.431)"/><path class="e" d="M419.524,135.566l-7.891-2.167s3.767,5.925,9.266,7.435,6.354-3.144,6.354-3.144Z" transform="translate(-298.709 -71.278)"/></g><path class="c" d="M359.572,126.644a22.1,22.1,0,1,1,22.1-22.1A22.126,22.126,0,0,1,359.572,126.644Zm0-39.378a17.277,17.277,0,1,0,17.276,17.278A17.3,17.3,0,0,0,359.572,87.265Z" transform="translate(88.314 0.453)"/><path class="a" d="M558.138,191.633a15.672,15.672,0,1,1,15.671-15.671A15.691,15.691,0,0,1,558.138,191.633Zm0-26.52a10.848,10.848,0,1,0,10.847,10.849A10.861,10.861,0,0,0,558.138,165.113Z" transform="translate(336.542 94.72)"/><path class="a" d="M322.966,320.2l-10.639-21.634,21.634-10.637L344.6,309.565Zm-4.183-19.436,6.381,12.982,12.98-6.381-6.381-12.98Z" transform="translate(57.866 249.283)"/><path class="a" d="M464.991,168.53l-10.637-21.638,21.634-10.637,10.637,21.636Zm-4.183-19.438,6.381,12.982,12.98-6.381-6.379-12.982Z" transform="translate(229.847 65.617)"/><rect class="a" width="11.084" height="11.084" transform="translate(341.832 442.438) rotate(-26.18)"/><g transform="translate(671.88 82.067)"><path class="m" d="M517.5,116.75,458.386,82.62a3.024,3.024,0,0,0-3.056-.245l0-.038L449.6,85.649l4.03,1.472v43.051c0,3.5,2.129,7.572,4.756,9.089l56.5,32.622v5.052l5.793-3.336-.031-.011c.979-.6,1.607-1.908,1.607-3.792V125.839C522.259,122.337,520.13,118.267,517.5,116.75Z" transform="translate(-447.789 -82.067)"/><path class="k" d="M512.654,174.925l-59.115-34.132c-2.626-1.517-4.758-5.585-4.758-9.087V87.749c0-3.5,2.131-5.114,4.758-3.6l59.115,34.132c2.627,1.517,4.758,5.585,4.758,9.087v43.957C517.412,174.832,515.281,176.441,512.654,174.925Z" transform="translate(-448.781 -80.233)"/><g transform="translate(16.659 37.959)"><path class="e" d="M464.3,106.689c0,2.543-1.786,3.575-3.991,2.3a8.816,8.816,0,0,1-3.988-6.907c0-2.545,1.786-3.575,3.988-2.3A8.813,8.813,0,0,1,464.3,106.689Z" transform="translate(-456.316 -99.236)"/><path class="e" d="M469.759,109.844c0,2.545-1.786,3.575-3.988,2.3a8.814,8.814,0,0,1-3.988-6.909c0-2.543,1.784-3.575,3.988-2.3A8.823,8.823,0,0,1,469.759,109.844Z" transform="translate(-449.697 -95.415)"/><path class="e" d="M475.224,113c0,2.543-1.784,3.573-3.988,2.3a8.817,8.817,0,0,1-3.988-6.909c0-2.543,1.786-3.573,3.988-2.3A8.811,8.811,0,0,1,475.224,113Z" transform="translate(-443.08 -91.594)"/></g></g><g transform="translate(264.54 456.708)"><path class="a" d="M331.958,285.544l-57.994-33.482a2.964,2.964,0,0,0-3-.241l0-.038-5.627,3.25s2.492.909,3.953,1.444v42.235c0,3.436,2.089,7.426,4.667,8.914L329.4,339.631v4.955l5.684-3.272-.031-.011c.96-.586,1.576-1.87,1.576-3.719V294.46C336.625,291.025,334.536,287.032,331.958,285.544Z" transform="translate(-263.568 -251.518)"/><path class="c" d="M327.2,342.615,269.207,309.13c-2.578-1.488-4.667-5.479-4.667-8.917V257.092c0-3.438,2.089-5.017,4.667-3.529L327.2,287.048c2.578,1.488,4.667,5.479,4.667,8.914v43.124C331.869,342.522,329.779,344.1,327.2,342.615Z" transform="translate(-264.54 -249.719)"/><g transform="translate(16.343 37.239)"><path class="e" d="M279.759,275.674c0,2.494-1.751,3.507-3.913,2.257a8.651,8.651,0,0,1-3.913-6.776c0-2.5,1.753-3.506,3.913-2.26A8.646,8.646,0,0,1,279.759,275.674Z" transform="translate(-271.932 -268.361)"/><path class="e" d="M285.121,278.769c0,2.5-1.753,3.507-3.913,2.26a8.646,8.646,0,0,1-3.913-6.779c0-2.494,1.751-3.507,3.913-2.257A8.652,8.652,0,0,1,285.121,278.769Z" transform="translate(-265.439 -264.613)"/><path class="e" d="M290.483,281.865c0,2.494-1.753,3.507-3.913,2.257a8.642,8.642,0,0,1-3.913-6.776c0-2.5,1.751-3.506,3.913-2.26A8.655,8.655,0,0,1,290.483,281.865Z" transform="translate(-258.946 -260.865)"/></g></g></g></svg>