<svg width="12" height="12" viewBox="0 0 12 12" fill="none" xmlns="http://www.w3.org/2000/svg">
<path d="M8.63673 0.897223C7.5706 0.346288 6.35859 0.14316 5.17103 0.316366C3.98347 0.489572 2.88 1.03041 2.01559 1.86293C1.15117 2.69544 0.569246 3.77782 0.351533 4.95802C0.13382 6.13823 0.291257 7.35699 0.801733 8.44312C1.31221 9.52926 2.15009 10.4283 3.19768 11.0138C4.24527 11.5993 5.44996 11.842 6.64255 11.7077C7.83513 11.5735 8.95573 11.069 9.84693 10.2652C9.9836 10.1419 9.99447 9.93112 9.8712 9.79446C9.74787 9.65772 9.53713 9.64686 9.4004 9.77019C8.61267 10.4807 7.62213 10.9265 6.56797 11.0452C5.5138 11.1639 4.44894 10.9494 3.52294 10.4318C2.59694 9.91426 1.85631 9.11966 1.40509 8.15959C0.95386 7.19946 0.814693 6.12219 1.00714 5.07896C1.19958 4.03574 1.71397 3.079 2.47805 2.34311C3.24213 1.60722 4.21753 1.12916 5.26725 0.97605C6.31697 0.82295 7.38827 1.0025 8.33073 1.48949C9.18687 1.93189 9.8976 2.60782 10.3822 3.4362L8.04267 2.79005C7.8652 2.74104 7.6816 2.84516 7.6326 3.02261C7.5836 3.20006 7.68773 3.38364 7.8652 3.43266L11.0782 4.32006C11.1793 4.34799 11.2877 4.32668 11.3707 4.26253C11.4538 4.19838 11.5018 4.09889 11.5003 3.99398L11.4525 0.660991C11.4499 0.476915 11.2985 0.32983 11.1145 0.332466C10.9304 0.335103 10.7833 0.486464 10.7859 0.670536L10.8175 2.87224C10.2762 2.0386 9.5258 1.35662 8.63673 0.897223Z" fill="#0075E1"/>
</svg>
